<?xml version="1.0" standalone="no"?>
<!DOCTYPE svg PUBLIC "-//W3C//DTD SVG 20010904//EN"
 "http://www.w3.org/TR/2001/REC-SVG-20010904/DTD/svg10.dtd">
<svg version="1.0" xmlns="http://www.w3.org/2000/svg"
 width="240.000000pt" height="240.000000pt" viewBox="0 0 240.000000 240.000000"
 preserveAspectRatio="xMidYMid meet">
<metadata>
Created by potrace 1.11, written by Peter Selinger 2001-2013
</metadata>
<g transform="translate(0.000000,240.000000) scale(0.100000,-0.100000)"
fill="#000000" stroke="none">
<path d="M735 2010 c-237 -133 -442 -254 -457 -271 l-28 -29 0 -506 c0 -327 4
-512 10 -525 9 -17 111 -89 126 -89 3 0 44 -22 91 -50 47 -27 86 -50 88 -50 2
0 42 -23 90 -50 48 -28 88 -50 90 -50 2 0 36 -19 77 -43 87 -52 163 -94 276
-155 65 -34 91 -43 115 -39 18 3 192 95 387 205 195 109 375 210 400 224 25
14 62 35 82 47 71 43 68 14 68 575 l0 506 -27 29 c-16 17 -222 138 -459 271
-328 183 -439 240 -465 240 -26 0 -136 -57 -464 -240z"/>
</g>
</svg>
